<svg width="24" height="24" viewBox="0 0 24 24" fill="none" xmlns="http://www.w3.org/2000/svg">
<path d="M12 20C12.8313 20 13.6094 19.8509 14.3344 19.5526C15.0594 19.2543 15.6969 18.8456 16.2469 18.3266C16.7969 17.8076 17.225 17.2021 17.5313 16.5101C17.8375 15.818 17.9938 15.0723 18 14.2729C18 13.3721 17.825 12.5339 17.475 11.7584C17.125 10.9828 16.6188 10.2789 15.9563 9.64653C15.1438 8.86503 14.5063 8.00298 14.0438 7.0604C13.5813 6.11782 13.3063 5.09769 13.2188 4C12.7 4.06562 12.2219 4.21477 11.7844 4.44743C11.3469 4.68009 10.9625 4.97539 10.6313 5.33333C10.3 5.69128 10.0469 6.09396 9.87188 6.54139C9.69688 6.98881 9.60625 7.46607 9.6 7.97315C9.6 8.43848 9.67188 8.85906 9.81563 9.2349C9.95938 9.61074 10.1719 9.98658 10.4531 10.3624C10.5719 10.5175 10.6625 10.6786 10.725 10.8456C10.7875 11.0127 10.8219 11.1976 10.8281 11.4004C10.8281 11.6391 10.7813 11.8628 10.6875 12.0716C10.5938 12.2804 10.4625 12.4623 10.2938 12.6174C10.125 12.7726 9.93438 12.8978 9.72188 12.9933C9.50938 13.0887 9.275 13.1335 9.01875 13.1275C8.73125 13.1275 8.47813 13.0768 8.25938 12.9754C8.04063 12.874 7.84688 12.7368 7.67813 12.5638C7.50938 12.3908 7.35938 12.1969 7.22813 11.9821C7.09688 11.7673 6.97188 11.5526 6.85313 11.3378C6.56563 11.7733 6.35313 12.2416 6.21563 12.7427C6.07813 13.2438 6.00625 13.7539 6 14.2729C6 15.0664 6.15625 15.8091 6.46875 16.5011C6.78125 17.1931 7.20938 17.8016 7.75313 18.3266C8.29688 18.8516 8.93125 19.2603 9.65625 19.5526C10.3813 19.8449 11.1625 19.994 12 20Z" stroke="#535359" stroke-width="1.5"/>
</svg>
