<svg width="12" height="12" viewBox="0 0 12 12" fill="none" xmlns="http://www.w3.org/2000/svg">
<g clip-path="url(#clip0_34624_1311)">
<path d="M6 0.625C3.03147 0.625 0.625 3.03147 0.625 6C0.625 8.96855 3.03147 11.375 6 11.375C8.96855 11.375 11.375 8.96855 11.375 6C11.375 3.03147 8.96855 0.625 6 0.625Z" fill="#D9D9D9"/>
<path d="M3.9 8.7C3.73431 8.86569 3.46569 8.86569 3.3 8.7C3.13431 8.53431 3.13431 8.26569 3.3 8.1L5.4 6L3.3 3.9C3.13431 3.73431 3.13431 3.46569 3.3 3.3C3.46569 3.13431 3.73431 3.13431 3.9 3.3L6 5.4L8.1 3.3C8.26569 3.13431 8.53431 3.13431 8.7 3.3C8.86569 3.46569 8.86569 3.73431 8.7 3.9L6.6 6L8.7 8.1C8.86569 8.26569 8.86569 8.53431 8.7 8.7C8.53431 8.86569 8.26569 8.86569 8.1 8.7L6 6.6L3.9 8.7Z" fill="#A1A1A1"/>
</g>
<defs>
<clipPath id="clip0_34624_1311">
<rect width="12" height="12" rx="5" fill="white"/>
</clipPath>
</defs>
</svg>
