<svg width="220" height="489" viewBox="0 0 220 489" fill="none" xmlns="http://www.w3.org/2000/svg">
<g clip-path="url(#clip0_43660_2472)">
<path d="M40.9944 25.7256C34.6291 30.0042 22.6058 45.4074 25.4348 72.7907C22.2522 72.1964 16.2405 72.4342 17.655 78.139C19.0695 83.8439 21.3094 86.2209 22.2522 86.6963C23.0776 87.766 24.6569 90.4045 24.3739 92.4012C24.0203 94.8971 25.7885 100.602 31.4465 99.1757C33.2146 104.761 37.5289 116.148 40.6408 117.003V143.032C40.7589 145.409 39.2263 150.876 32.1537 153.728C25.0812 156.581 -12.521 171.319 -30.4382 178.331C-35.7426 181.183 -46.9879 191.309 -49.534 208.994C-52.0802 226.679 -58.6105 277.215 -61.5574 300.272C-63.2076 317.506 -66.8618 352.044 -68.2763 352.329C-68.512 377.644 -68.0641 430.771 -64.3864 440.754V494.951L-57.6675 513.135L-41.4006 524.901L-31.4991 523.831C-29.9666 524.188 -28.1749 523.19 -33.2672 516.344L-40.6934 507.073L-41.4006 481.045C-39.0431 490.078 -33.7623 507.287 -31.4991 503.864C-29.2358 500.442 -30.556 488.176 -31.4991 482.471C-31.0275 480.451 -31.4283 472.844 -36.8035 458.582C-41.1648 453.947 -48.6853 441.04 -43.876 426.492C-37.8643 408.308 -24.4265 345.198 -25.4874 321.309L-13.4641 264.973L-4.977 321.309C-2.03008 333.907 1.67106 364.88 -7.09876 387.984C-15.8687 411.089 -17.5897 460.602 -17.354 482.471C-14.9964 518.364 -7.80602 593.502 2.09541 606.909C1.85989 614.277 2.02469 630.512 4.57081 636.503C7.75345 643.99 -0.379837 648.269 -1.44072 679.646C-2.28943 704.747 -0.615562 718.867 0.327278 722.789C8.10708 747.866 22.3229 800.23 16.9478 809.073C16.2405 812.881 15.2504 821.552 16.9478 825.831C18.6452 830.109 6.57516 849.249 0.327278 858.277C-3.56248 860.181 -9.85706 865.194 -3.91611 870.043C2.02469 874.892 23.3131 876.105 33.2146 876.105C36.9871 876.226 44.46 873.252 44.1771 860.416C43.8235 844.371 45.5916 852.929 45.9452 847.58C46.2281 843.302 44.8843 833.439 44.1771 829.04C45.4742 825.117 47.289 815.205 44.1771 806.933C40.2872 796.593 59.7367 704.961 48.7742 667.523L46.2989 658.252C45.9452 656.35 45.4501 651.264 46.2989 646.13C47.1476 640.995 49.246 631.154 50.1888 626.876C50.5424 623.073 50.7546 612.471 48.7742 600.491C46.7939 588.51 50.3069 577.434 52.3105 573.392C55.2576 548.077 61.0098 491.456 60.4439 467.496H65.3947" fill="#CAE1FF"/>
<path d="M89.7597 25.7256C96.125 30.0042 108.148 45.4074 105.319 72.7907C108.502 72.1964 114.514 72.4342 113.099 78.139C111.685 83.8439 109.445 86.2209 108.502 86.6963C107.677 87.766 106.097 90.4045 106.38 92.4012C106.734 94.8971 104.966 100.602 99.3076 99.1757C97.5395 104.761 93.2252 116.148 90.1133 117.003V143.032C89.9952 145.409 91.5278 150.876 98.6004 153.728C105.673 156.581 143.276 171.319 161.192 178.331C166.497 181.183 177.742 191.309 180.288 208.994C182.834 226.679 189.364 277.215 192.312 300.272C193.962 317.506 197.616 352.044 199.031 352.329C199.266 377.644 198.818 430.771 195.141 440.754V494.951L188.422 513.135L172.155 524.901L162.253 523.831C160.721 524.188 158.929 523.19 164.021 516.344L171.448 507.073L172.155 481.045C169.798 490.078 164.517 507.287 162.253 503.864C159.99 500.442 161.311 488.176 162.253 482.471C161.782 480.451 162.183 472.844 167.558 458.582C171.919 453.947 179.44 441.04 174.63 426.492C168.619 408.308 155.181 345.198 156.242 321.309L144.218 264.973L135.731 321.309C132.784 333.907 129.083 364.88 137.853 387.984C146.623 411.089 148.344 460.602 148.108 482.471C145.751 518.364 138.56 593.502 128.659 606.909C128.894 614.277 128.729 630.512 126.183 636.503C123.001 643.99 131.134 648.269 132.195 679.646C133.044 704.747 131.37 718.867 130.427 722.789C122.647 747.866 108.431 800.23 113.806 809.073C114.514 812.881 115.504 821.552 113.806 825.831C112.109 830.109 124.18 849.249 130.427 858.277C134.317 860.181 140.611 865.194 134.67 870.043C128.729 874.892 107.441 876.105 97.5395 876.105C93.7677 876.226 86.2941 873.252 86.577 860.416C86.9306 844.371 85.1625 852.929 84.8089 847.58C84.526 843.302 85.8698 833.439 86.577 829.04C85.2806 825.117 83.4651 815.205 86.577 806.933C90.4669 796.593 71.0174 704.961 81.9799 667.523L84.4553 658.252C84.8089 656.35 85.304 651.264 84.4553 646.13C83.6066 640.995 81.5081 631.154 80.5654 626.876C80.2117 623.073 79.9995 612.471 81.9799 600.491C83.9602 588.51 80.4472 577.434 78.4436 573.392C75.4965 548.077 69.7444 491.456 70.3102 467.496H65.3594" fill="#CAE1FF"/>
<path d="M37.1641 29.505C46.1501 19.0869 70.0039 4.50139 93.5309 29.505H37.1641Z" fill="#CAE1FF"/>
<path d="M91.4236 27.7783H39.2644C38.1214 27.7783 37.2109 28.7345 37.2668 29.8762L58.5237 463.811C58.5683 464.72 59.2217 465.485 60.1132 465.671L68.2243 467.361C69.4248 467.612 70.5657 466.732 70.6297 465.508L93.4208 29.8828C93.4807 28.7388 92.5692 27.7783 91.4236 27.7783Z" fill="#CAE1FF"/>
<g filter="url(#filter0_f_43660_2472)">
<ellipse cx="72" cy="480.5" rx="195" ry="82.5" fill="#F5F7FA"/>
</g>
</g>
<defs>
<filter id="filter0_f_43660_2472" x="-173" y="348" width="490" height="265" filterUnits="userSpaceOnUse" color-interpolation-filters="sRGB">
<feFlood flood-opacity="0" result="BackgroundImageFix"/>
<feBlend mode="normal" in="SourceGraphic" in2="BackgroundImageFix" result="shape"/>
<feGaussianBlur stdDeviation="25" result="effect1_foregroundBlur_43660_2472"/>
</filter>
<clipPath id="clip0_43660_2472">
<rect width="220" height="489" fill="white"/>
</clipPath>
</defs>
</svg>
