<svg width="80" height="80" viewBox="0 0 80 80" fill="none" xmlns="http://www.w3.org/2000/svg">
<circle cx="40" cy="40" r="40" fill="#F0F0F0"/>
<path d="M23.75 57.5L25.15 55.05C26.2433 53.1361 27.8232 51.5453 29.7295 50.4389C31.6358 49.3325 33.8009 48.7498 36.005 48.75H43.995C46.1991 48.7498 48.3642 49.3325 50.2705 50.4389C52.1768 51.5453 53.7567 53.1361 54.85 55.05L56.25 57.5M46.875 33.75C46.875 35.5734 46.1507 37.322 44.8614 38.6114C43.572 39.9007 41.8234 40.625 40 40.625C38.1766 40.625 36.428 39.9007 35.1386 38.6114C33.8493 37.322 33.125 35.5734 33.125 33.75C33.125 31.9266 33.8493 30.178 35.1386 28.8886C36.428 27.5993 38.1766 26.875 40 26.875C41.8234 26.875 43.572 27.5993 44.8614 28.8886C46.1507 30.178 46.875 31.9266 46.875 33.75Z" stroke="#A1A1A1" stroke-width="3" stroke-linecap="round" stroke-linejoin="round"/>
</svg>
