<svg width="16" height="16" viewBox="0 0 16 16" fill="none" xmlns="http://www.w3.org/2000/svg">
<path d="M4.27713 6.98352L4.20879 7.08351C3.88662 7.55436 3.45446 7.93956 2.94977 8.20571C2.44507 8.47187 1.88307 8.61096 1.31246 8.61093H1.23328C0.581503 8.61093 0.254781 9.39922 0.715693 9.86003L6.13995 15.2831C6.60086 15.7439 7.39017 15.4172 7.39017 14.7656V14.6864C7.39017 13.5282 7.9611 12.4449 8.91793 11.7899L9.01711 11.7224C9.43033 11.4394 9.77613 11.0689 10.0299 10.6372C10.2837 10.2055 10.4392 9.72318 10.4854 9.22456C10.5317 8.72594 10.4674 8.22327 10.2973 7.75227C10.1273 7.28128 9.85546 6.85353 9.50129 6.49944C9.14713 6.14536 8.71928 5.87363 8.24818 5.70357C7.77708 5.53352 7.27429 5.46931 6.77556 5.51552C6.27683 5.56174 5.79441 5.71723 5.3626 5.97095C4.93078 6.22467 4.56018 6.57039 4.27713 6.98352Z" stroke="white" stroke-linecap="round" stroke-linejoin="round"/>
<path d="M13.8356 12.1664C13.6818 13.0111 13.2657 13.7859 12.6462 14.3805C12.0521 14.9495 11.3083 15.3376 10.5017 15.4996M3.8339 2.16699C3.01479 2.33986 2.26328 2.74621 1.6702 3.33693C1.07935 3.92988 0.672911 4.68121 0.5 5.50014" stroke="white" stroke-linecap="round"/>
<path d="M8.82812 5.33497L12.0703 1.23019C12.2383 1.01746 12.4493 0.842705 12.6897 0.717417C12.93 0.592129 13.1942 0.519152 13.4648 0.50329C13.7354 0.487429 14.0063 0.529042 14.2596 0.625391C14.5129 0.72174 14.743 0.87064 14.9346 1.06229C15.1263 1.25394 15.2751 1.48399 15.3714 1.73731C15.4677 1.99063 15.5092 2.26146 15.4933 2.53198C15.4774 2.8025 15.4043 3.06658 15.2789 3.30683C15.1535 3.54708 14.9786 3.75806 14.7658 3.92588L10.6601 7.16654" stroke="white" stroke-linecap="round" stroke-linejoin="round"/>
<path d="M4.66232 14.0945C4.29604 14.4607 3.79925 14.6665 3.28125 14.6665C2.76325 14.6665 2.26646 14.4607 1.90018 14.0945C1.5339 13.7283 1.32813 13.2317 1.32812 12.7138C1.32812 12.1959 1.5339 11.6992 1.90018 11.333" stroke="white"/>
</svg>
