<svg width="20" height="20" viewBox="0 0 20 20" fill="none" xmlns="http://www.w3.org/2000/svg">
<path d="M10 0C15.5228 0 20 4.47715 20 10C20 15.5228 15.5228 20 10 20C4.47715 20 0 15.5228 0 10C0 4.47715 4.47715 0 10 0ZM8.34277 3.75391C7.60452 3.27399 6.82326 3.42242 6.25098 3.79102C5.72741 4.12827 5.31805 4.66908 5.02051 5.20898C4.43227 6.2764 4.03775 7.79965 4.30273 9.05078C4.44142 9.70561 4.78833 10.3889 5.49609 10.7949C5.72352 10.9254 5.96718 11.0143 6.22266 11.0674C5.8373 12.1076 5.42426 13.0749 5.0957 13.791C4.86471 14.2949 5.0866 14.8911 5.59082 15.1221C6.09501 15.3528 6.69165 15.1317 6.92285 14.6279C7.35984 13.6754 7.9493 12.2749 8.44434 10.8115C9.45951 10.4473 10.6834 9.75018 12.1553 8.64941C11.8698 9.47155 11.6278 10.3112 11.4688 11.1143C11.2477 12.2302 11.1613 13.3992 11.4414 14.3828C11.5858 14.8898 11.8365 15.378 12.2432 15.7725C12.6552 16.172 13.1763 16.4255 13.7754 16.5352C14.321 16.6349 14.8444 16.2737 14.9443 15.7285C15.0443 15.1834 14.6831 14.6607 14.1377 14.5605C13.8842 14.5141 13.7379 14.4244 13.6426 14.332C13.542 14.2345 13.4446 14.0808 13.374 13.833C13.2242 13.3068 13.2397 12.5125 13.4395 11.5039C13.8336 9.51397 14.8446 7.16312 15.6709 5.59863C15.8988 5.16667 15.7826 4.63304 15.3955 4.33496C15.0082 4.03682 14.4614 4.0608 14.1016 4.3916C12.004 6.31996 10.3871 7.52997 9.16895 8.24316C9.32066 7.52776 9.41615 6.8246 9.41113 6.19434C9.40456 5.37482 9.22196 4.3255 8.34277 3.75391ZM7.31445 5.5625C7.36151 5.69288 7.39989 5.90291 7.40234 6.21094C7.40722 6.83038 7.26785 7.65368 7.02051 8.59082C6.97438 8.76557 6.92497 8.94257 6.87305 9.12012C6.65418 9.12592 6.54209 9.0801 6.49609 9.05371C6.43221 9.01706 6.32952 8.92262 6.26855 8.63477C6.13434 8.00051 6.34087 6.97519 6.78027 6.17773C6.97304 5.82794 7.16185 5.61423 7.29395 5.51172C7.30046 5.52601 7.30736 5.54286 7.31445 5.5625Z" fill="#308BF9"/>
<path d="M10 0C15.5228 0 20 4.47715 20 10C20 15.5228 15.5228 20 10 20C4.47715 20 0 15.5228 0 10C0 4.47715 4.47715 0 10 0ZM8.34277 3.75391C7.60452 3.27399 6.82326 3.42242 6.25098 3.79102C5.72741 4.12827 5.31805 4.66908 5.02051 5.20898C4.43227 6.2764 4.03775 7.79965 4.30273 9.05078C4.44142 9.70561 4.78833 10.3889 5.49609 10.7949C5.72352 10.9254 5.96718 11.0143 6.22266 11.0674C5.8373 12.1076 5.42426 13.0749 5.0957 13.791C4.86471 14.2949 5.0866 14.8911 5.59082 15.1221C6.09501 15.3528 6.69165 15.1317 6.92285 14.6279C7.35984 13.6754 7.9493 12.2749 8.44434 10.8115C9.45951 10.4473 10.6834 9.75018 12.1553 8.64941C11.8698 9.47155 11.6278 10.3112 11.4688 11.1143C11.2477 12.2302 11.1613 13.3992 11.4414 14.3828C11.5858 14.8898 11.8365 15.378 12.2432 15.7725C12.6552 16.172 13.1763 16.4255 13.7754 16.5352C14.321 16.6349 14.8444 16.2737 14.9443 15.7285C15.0443 15.1834 14.6831 14.6607 14.1377 14.5605C13.8842 14.5141 13.7379 14.4244 13.6426 14.332C13.542 14.2345 13.4446 14.0808 13.374 13.833C13.2242 13.3068 13.2397 12.5125 13.4395 11.5039C13.8336 9.51397 14.8446 7.16312 15.6709 5.59863C15.8988 5.16667 15.7826 4.63304 15.3955 4.33496C15.0082 4.03682 14.4614 4.0608 14.1016 4.3916C12.004 6.31996 10.3871 7.52997 9.16895 8.24316C9.32066 7.52776 9.41615 6.8246 9.41113 6.19434C9.40456 5.37482 9.22196 4.3255 8.34277 3.75391ZM7.31445 5.5625C7.36151 5.69288 7.39989 5.90291 7.40234 6.21094C7.40722 6.83038 7.26785 7.65368 7.02051 8.59082C6.97438 8.76557 6.92497 8.94257 6.87305 9.12012C6.65418 9.12592 6.54209 9.0801 6.49609 9.05371C6.43221 9.01706 6.32952 8.92262 6.26855 8.63477C6.13434 8.00051 6.34087 6.97519 6.78027 6.17773C6.97304 5.82794 7.16185 5.61423 7.29395 5.51172C7.30046 5.52601 7.30736 5.54286 7.31445 5.5625Z" fill="#308BF9"/>
<path fill-rule="evenodd" clip-rule="evenodd" d="M6.25111 3.79151C6.8234 3.42286 7.60453 3.27371 8.34283 3.75366C9.22221 4.32531 9.40489 5.3751 9.41141 6.19469C9.41643 6.82495 9.32044 7.52752 9.16872 8.24292C10.3869 7.52971 12.0043 6.3202 14.102 4.39171C14.4618 4.06091 15.0077 4.03705 15.3951 4.33519C15.7824 4.63333 15.8987 5.16687 15.6705 5.59897C14.8441 7.16354 13.8334 9.51424 13.4392 11.5042C13.2395 12.513 13.2239 13.3072 13.3738 13.8334C13.4444 14.0812 13.5418 14.2346 13.6423 14.3321C13.7376 14.4245 13.8836 14.5138 14.1372 14.5603C14.6829 14.6602 15.0442 15.1833 14.9442 15.7286C14.8442 16.2739 14.3208 16.6349 13.7751 16.535C13.176 16.4253 12.6552 16.1723 12.2432 15.7728C11.8364 15.3784 11.5859 14.89 11.4415 14.3829C11.1614 13.3993 11.2474 12.2305 11.4684 11.1145C11.6275 10.3114 11.8699 9.47216 12.1555 8.64993C10.6836 9.7507 9.45974 10.4471 8.44457 10.8114C7.94952 12.2749 7.35938 13.675 6.92237 14.6276C6.69117 15.1315 6.09491 15.3527 5.5906 15.1217C5.08629 14.8907 4.86489 14.2949 5.0961 13.7909C5.42465 13.0748 5.83703 12.1078 6.22238 11.0676C5.96684 11.0145 5.72354 10.9251 5.49607 10.7946C4.7883 10.3886 4.44155 9.70562 4.30286 9.05079C4.03788 7.79966 4.43227 6.27654 5.0205 5.20913C5.31805 4.6692 5.72752 4.12878 6.25111 3.79151ZM6.87305 9.11993C6.92497 8.94239 6.97425 8.76583 7.02038 8.59108C7.2678 7.65368 7.40735 6.83019 7.40242 6.21066C7.39997 5.9026 7.36166 5.69282 7.31459 5.56244C7.30746 5.54269 7.3005 5.5258 7.29395 5.51144C7.16185 5.6139 6.9732 5.82762 6.78036 6.17755C6.34082 6.97514 6.13404 8.00082 6.26838 8.63511C6.32935 8.92299 6.43239 9.01686 6.49627 9.0535C6.54227 9.07989 6.65418 9.12574 6.87305 9.11993Z" fill="white"/>
</svg>
