<svg width="18" height="18" viewBox="0 0 18 18" fill="none" xmlns="http://www.w3.org/2000/svg">
<path d="M6.6767 2.33786L6.76559 2.82989L6.76586 2.82985L6.6767 2.33786ZM8.64422 2.75C8.92036 2.75 9.14422 2.52614 9.14422 2.25C9.14422 1.97386 8.92036 1.75 8.64422 1.75V2.25V2.75ZM10.6638 8.96379L10.204 8.76736L10.2039 8.76741L10.6638 8.96379ZM12.0222 8.29936L11.9128 7.81148L11.9126 7.81151L12.0222 8.29936ZM15.5057 5.26656L15.9438 5.50783L15.9491 5.49766L15.5057 5.26656ZM15.4068 4.29252L15.7421 3.92161L15.7411 3.92072L15.4068 4.29252ZM15.09 4.15778L15.0437 3.65992L15.0411 3.66018L15.09 4.15778ZM14.4847 4.40868L14.7355 4.84125L14.7356 4.84118L14.4847 4.40868ZM14.124 4.62959L14.3898 5.05311L14.3904 5.05273L14.124 4.62959ZM14.0412 4.68155L14.3052 5.10619L14.307 5.10506L14.0412 4.68155ZM13.528 4.98398L13.7632 5.42523L13.7635 5.42507L13.528 4.98398ZM12.1523 5.33034L12.1946 4.83214L12.1943 4.83211L12.1523 5.33034ZM9.70407 4.66803L9.88387 4.20147L9.88268 4.20102L9.70407 4.66803ZM9.55497 4.61101L9.37606 5.0779L9.37636 5.07802L9.55497 4.61101ZM8.80735 4.34194L8.96058 3.866L8.80735 4.34194ZM11.2553 8.4716L11.1457 7.98375L11.2553 8.4716ZM8.468 10.8912L8.60863 11.371L8.468 10.8912ZM8.64422 16.4425H9.14422V13.9081H8.64422H8.14422V16.4425H8.64422ZM8.64422 13.9081H9.14422C9.14422 13.0864 8.49374 12.3944 7.66004 12.3944V12.8944V13.3944C7.91358 13.3944 8.14422 13.6104 8.14422 13.9081H8.64422ZM7.66004 12.8944V12.3944C4.94081 12.3944 2.75 10.2278 2.75 7.57218H2.25H1.75C1.75 10.7955 4.40407 13.3944 7.66004 13.3944V12.8944ZM2.25 7.57218H2.75C2.75 5.21537 4.47524 3.24363 6.76559 2.82989L6.6767 2.33786L6.58782 1.84582C3.84152 2.34192 1.75 4.71156 1.75 7.57218H2.25ZM6.6767 2.33786L6.76586 2.82985C6.88183 2.80883 7.24717 2.78718 7.67208 2.77191C8.07838 2.75731 8.48406 2.75 8.64422 2.75V2.25V1.75C8.46816 1.75 8.04974 1.75769 7.63617 1.77255C7.24121 1.78674 6.79091 1.80902 6.58755 1.84587L6.6767 2.33786ZM8.468 10.8912L8.60863 11.371C9.68094 11.0567 10.6385 10.2959 11.1236 9.16016L10.6638 8.96379L10.2039 8.76741C9.84658 9.60417 9.13903 10.1735 8.32736 10.4113L8.468 10.8912ZM11.2553 8.4716L11.3648 8.95945L12.1317 8.78721L12.0222 8.29936L11.9126 7.81151L11.1457 7.98375L11.2553 8.4716ZM12.0222 8.29936L12.1316 8.78724C13.9329 8.38325 15.0106 7.20188 15.9436 5.50777L15.5057 5.26656L15.0677 5.02536C14.1988 6.60312 13.3132 7.4974 11.9128 7.81148L12.0222 8.29936ZM15.5057 5.26656L15.9491 5.49766C16.3174 4.79104 16.0461 4.19638 15.7421 3.92161L15.4068 4.29252L15.0715 4.66343C15.0799 4.67097 15.1085 4.7048 15.1205 4.76017C15.1302 4.80486 15.1362 4.89367 15.0623 5.03547L15.5057 5.26656ZM15.4068 4.29252L15.7411 3.92072C15.631 3.8217 15.5121 3.74201 15.3773 3.69655C15.2326 3.64777 15.1131 3.65347 15.0437 3.65992L15.09 4.15778L15.1363 4.65563C15.143 4.65501 15.132 4.65642 15.1145 4.65523C15.0952 4.65391 15.0755 4.65009 15.0578 4.64414C15.0244 4.63289 15.0276 4.62394 15.0725 4.66432L15.4068 4.29252ZM15.09 4.15778L15.0411 3.66018C14.8 3.68389 14.5384 3.79951 14.2339 3.97618L14.4847 4.40868L14.7356 4.84118C14.8694 4.76356 14.9666 4.71604 15.0364 4.68778C15.107 4.65921 15.137 4.65557 15.139 4.65537L15.09 4.15778ZM14.4847 4.40868L14.234 3.97611C14.1084 4.04889 13.9858 4.12576 13.8576 4.20645L14.124 4.62959L14.3904 5.05273C14.5199 4.97122 14.6279 4.90363 14.7355 4.84125L14.4847 4.40868ZM14.124 4.62959L13.8582 4.20608L13.7755 4.25803L14.0412 4.68155L14.307 5.10506L14.3898 5.05311L14.124 4.62959ZM14.0412 4.68155L13.7773 4.2569C13.6202 4.35456 13.4574 4.45491 13.2926 4.54289L13.528 4.98398L13.7635 5.42507C13.9611 5.3196 14.1497 5.20283 14.3052 5.10619L14.0412 4.68155ZM13.528 4.98398L13.2929 4.54273C12.9699 4.71485 12.5943 4.86607 12.1946 4.83214L12.1523 5.33034L12.11 5.82855C12.8051 5.88755 13.3934 5.62229 13.7632 5.42523L13.528 4.98398ZM12.1523 5.33034L12.1943 4.83211C11.3429 4.76036 10.5824 4.47065 9.88387 4.20147L9.70407 4.66803L9.52428 5.13458C10.2112 5.39931 11.0972 5.7432 12.1103 5.82858L12.1523 5.33034ZM9.70407 4.66803L9.88268 4.20102L9.73357 4.14399L9.55497 4.61101L9.37636 5.07802L9.52547 5.13504L9.70407 4.66803ZM9.55497 4.61101L9.73388 4.14411C9.46837 4.04237 9.21152 3.94679 8.96058 3.866L8.80735 4.34194L8.65412 4.81788C8.87797 4.88995 9.11392 4.97745 9.37606 5.0779L9.55497 4.61101ZM7.66053 4.18903V3.68903C5.421 3.68903 3.6745 5.46574 3.6745 7.572H4.1745H4.6745C4.6745 6.0296 5.96164 4.68903 7.66053 4.68903V4.18903ZM4.1745 7.572H3.6745C3.6745 9.67825 5.421 11.455 7.66053 11.455V10.955V10.455C5.96164 10.455 4.6745 9.11439 4.6745 7.572H4.1745ZM8.80735 4.34194L8.96058 3.866C8.52182 3.72474 8.07467 3.68903 7.66053 3.68903V4.18903V4.68903C8.0226 4.68903 8.35401 4.72126 8.65412 4.81788L8.80735 4.34194ZM10.6638 8.96379L11.1236 9.16022C11.167 9.05841 11.2568 8.98371 11.3648 8.95945L11.2553 8.4716L11.1457 7.98375C10.7241 8.07844 10.3737 8.37 10.204 8.76736L10.6638 8.96379ZM8.468 10.8912L8.32736 10.4113C8.15354 10.4623 7.96982 10.455 7.66053 10.455V10.955V11.455C7.89429 11.455 8.26132 11.4728 8.60863 11.371L8.468 10.8912Z" fill="#DA5747"/>
</svg>
