<svg width="20" height="20" viewBox="0 0 20 20" fill="none" xmlns="http://www.w3.org/2000/svg">
<path d="M12.9154 10C12.9154 10.3831 12.8399 10.7623 12.6933 11.1162C12.5468 11.4701 12.3319 11.7916 12.0611 12.0624C11.7903 12.3333 11.4687 12.5481 11.1149 12.6947C10.761 12.8413 10.3817 12.9167 9.9987 12.9167C9.61568 12.9167 9.2364 12.8413 8.88254 12.6947C8.52867 12.5481 8.20714 12.3333 7.9363 12.0624C7.66547 11.7916 7.45063 11.4701 7.30405 11.1162C7.15747 10.7623 7.08203 10.3831 7.08203 10C7.08203 9.22649 7.38932 8.48463 7.9363 7.93765C8.48328 7.39066 9.22515 7.08337 9.9987 7.08337C10.7722 7.08337 11.5141 7.39066 12.0611 7.93765C12.6081 8.48463 12.9154 9.22649 12.9154 10Z" stroke="#A1A1A1" stroke-width="1.5"/>
<path d="M17.3243 7.62667C17.9977 8.785 18.3327 9.36417 18.3327 10C18.3327 10.6358 17.9968 11.215 17.3243 12.3733L15.7218 15.1367C15.0527 16.29 14.7177 16.8667 14.1677 17.1833C13.6177 17.5 12.9493 17.5 11.6135 17.5H8.38518C7.04935 17.5 6.38102 17.5 5.83102 17.1833C5.28102 16.8667 4.94602 16.29 4.27685 15.1367L2.67435 12.3733C2.00185 11.215 1.66602 10.6358 1.66602 10C1.66602 9.36417 2.00185 8.785 2.67435 7.62667L4.27685 4.86333C4.94602 3.71 5.28102 3.13333 5.83102 2.81667C6.38102 2.5 7.04935 2.5 8.38518 2.5H11.6135C12.9493 2.5 13.6177 2.5 14.1677 2.81667C14.7177 3.13333 15.0527 3.71 15.7218 4.86333L17.3243 7.62667Z" stroke="#A1A1A1" stroke-width="1.5"/>
</svg>
