<svg width="20" height="20" viewBox="0 0 20 20" fill="none" xmlns="http://www.w3.org/2000/svg">
<path d="M10 17.5H15M12.0833 4.58329L15.4167 7.91662M6.81 16.5233L16.5233 6.80996C16.9783 6.35496 17.205 6.12829 17.3267 5.88329C17.4407 5.65326 17.5 5.40001 17.5 5.14329C17.5 4.88657 17.4407 4.63332 17.3267 4.40329C17.205 4.15746 16.9783 3.93079 16.5233 3.47662C16.0692 3.02162 15.8425 2.79496 15.5967 2.67329C15.3666 2.5593 15.1134 2.5 14.8567 2.5C14.5999 2.5 14.3467 2.5593 14.1167 2.67329C13.8717 2.79496 13.645 3.02162 13.19 3.47662L3.47667 13.19C2.99417 13.6716 2.75333 13.9125 2.62667 14.2191C2.5 14.525 2.5 14.8658 2.5 15.5475V17.5H4.4525C5.13417 17.5 5.47417 17.5 5.78083 17.3733C6.08667 17.2466 6.3275 17.005 6.81 16.5233Z" stroke="#A1A1A1" stroke-width="1.5" stroke-linecap="round" stroke-linejoin="round"/>
</svg>
