<svg width="20" height="20" viewBox="0 0 20 20" fill="none" xmlns="http://www.w3.org/2000/svg">
<path d="M12.9172 15C12.9172 15.3831 12.8417 15.7623 12.6951 16.1162C12.5486 16.4701 12.3337 16.7916 12.0629 17.0624C11.7921 17.3333 11.4705 17.5481 11.1167 17.6947C10.7628 17.8413 10.3835 17.9167 10.0005 17.9167C9.61748 17.9167 9.23821 17.8413 8.88434 17.6947C8.53047 17.5481 8.20894 17.3333 7.93811 17.0624C7.66727 16.7916 7.45243 16.4701 7.30585 16.1162C7.15928 15.7623 7.08383 15.3831 7.08383 15M16.0263 15H3.9755C3.68398 14.9999 3.39904 14.9134 3.1567 14.7513C2.91436 14.5893 2.72551 14.359 2.61402 14.0897C2.50253 13.8203 2.47341 13.5239 2.53033 13.238C2.58726 12.9521 2.72768 12.6895 2.93383 12.4834L3.4355 11.9809C3.90407 11.512 4.16725 10.8762 4.16717 10.2134V7.91671C4.16717 6.36961 4.78175 4.88588 5.87571 3.79192C6.96967 2.69796 8.4534 2.08337 10.0005 2.08337C11.5476 2.08337 13.0313 2.69796 14.1253 3.79192C15.2193 4.88588 15.8338 6.36961 15.8338 7.91671V10.2134C15.834 10.8764 16.0975 11.5121 16.5663 11.9809L17.0688 12.4834C17.2746 12.6896 17.4146 12.9522 17.4713 13.238C17.528 13.5238 17.4988 13.8199 17.3874 14.0891C17.276 14.3583 17.0873 14.5885 16.8453 14.7506C16.6032 14.9127 16.3177 14.9995 16.0263 15Z" stroke="#252525" stroke-width="1.5" stroke-linecap="round" stroke-linejoin="round"/>
</svg>
