<svg width="21" height="20" viewBox="0 0 21 20" fill="none" xmlns="http://www.w3.org/2000/svg">
<path d="M12.3075 17.4084C15.7941 17.1775 18.5708 14.3609 18.7991 10.825C18.8433 10.1334 18.8433 9.41669 18.7991 8.72503C18.5708 5.19003 15.7941 2.37503 12.3075 2.14253C11.1032 2.06317 9.89504 2.06317 8.69079 2.14253C5.20412 2.37419 2.42746 5.19003 2.19912 8.72586C2.15498 9.42517 2.15498 10.1266 2.19912 10.8259C2.28246 12.1134 2.85162 13.3059 3.52246 14.3125C3.91162 15.0167 3.65496 15.8959 3.24912 16.665C2.95746 17.2192 2.81079 17.4959 2.92829 17.6959C3.04496 17.8959 3.30746 17.9025 3.83162 17.915C4.86912 17.94 5.56829 17.6467 6.12329 17.2375C6.43746 17.005 6.59496 16.8892 6.70329 16.8759C6.81162 16.8625 7.02579 16.9509 7.45246 17.1259C7.83579 17.2842 8.28162 17.3817 8.68996 17.4092C9.87746 17.4875 11.1183 17.4875 12.3083 17.4092L12.3075 17.4084Z" stroke="#A1A1A1" stroke-width="1.5" stroke-linejoin="round"/>
<path d="M10.4952 10H10.5035M13.8252 10H13.8327M7.16602 10H7.17352" stroke="#A1A1A1" stroke-width="2" stroke-linecap="round" stroke-linejoin="round"/>
</svg>
