<svg width="24" height="24" viewBox="0 0 24 24" fill="none" xmlns="http://www.w3.org/2000/svg">
<path d="M15.3691 13.3657C15.3691 13.3657 14.4591 12.9057 13.5511 12.9057C12.1871 12.9057 10.3691 14.7507 10.3691 17.5207C10.3691 20.2897 12.8591 22.1357 15.3691 22.1357C17.8791 22.1357 20.3691 20.2897 20.3691 17.5207C20.3691 14.7517 18.5511 12.9047 17.1871 12.9047C16.2781 12.9047 15.3691 13.3667 15.3691 13.3667C15.3691 11.9827 16.2791 10.1367 18.0961 10.1367" stroke="#252525" stroke-width="1.5" stroke-linecap="round" stroke-linejoin="round"/>
<path d="M10.5137 11.5306L11.119 11.8066M5.13114 11.1938L6.79712 11.9534M8.05455 16.5514L8.60988 16.8046M8.88026 1.5C9.45589 1.76313 10.0649 2.56202 9.82018 4.01534M16.6549 5.04484C16.0792 4.78172 15.0759 4.84611 14.1403 5.98446M13.1616 2.40833L12.1771 4.56745M13.6678 11.0103C14.0858 9.58906 13.7094 8.49842 10.9572 7.24302C7.22283 5.53968 6.58485 6.94184 5.51978 9.27482C4.45693 11.6088 2.70456 20.3952 4.57188 21.2473C5.34712 21.6002 6.74569 20.586 8.19266 19.112" stroke="#252525" stroke-width="1.5" stroke-linecap="round" stroke-linejoin="round"/>
</svg>
