<svg width="20" height="20" viewBox="0 0 20 20" fill="none" xmlns="http://www.w3.org/2000/svg">
<path d="M16.6673 11.6665V8.88067C16.6673 8.199 16.6673 7.859 16.5407 7.55234C16.414 7.2465 16.1731 7.00484 15.6907 6.52317L11.744 2.5765C11.3282 2.16067 11.1207 1.95317 10.8623 1.82984C10.8089 1.80415 10.754 1.78134 10.6982 1.7615C10.429 1.6665 10.1348 1.6665 9.54732 1.6665C6.84315 1.6665 5.49065 1.6665 4.57482 2.40484C4.38989 2.55395 4.22143 2.72241 4.07232 2.90734C3.33398 3.82484 3.33398 5.17567 3.33398 7.87984V11.6665C3.33398 14.809 3.33398 16.3807 4.31065 17.3565C5.28732 18.3323 6.85815 18.3332 10.0007 18.3332M10.834 2.08317V2.49984C10.834 4.8565 10.834 6.03567 11.5665 6.76734C12.2982 7.49984 13.4773 7.49984 15.834 7.49984H16.2507" stroke="#252525" stroke-width="1.5" stroke-linecap="round" stroke-linejoin="round"/>
<path d="M14.1667 18.333C14.6725 17.8413 16.6667 16.533 16.6667 15.833C16.6667 15.133 14.6725 13.8247 14.1667 13.333M15.8333 15.833H10" stroke="#252525" stroke-width="1.5" stroke-linecap="round" stroke-linejoin="round"/>
</svg>
