<svg width="20" height="20" viewBox="0 0 20 20" fill="none" xmlns="http://www.w3.org/2000/svg">
<path d="M10.8327 3.33325H5.19519C3.16186 3.33325 2.14519 3.33325 1.78685 3.97159L1.75519 4.03159C1.43185 4.68825 2.00769 5.52575 3.16019 7.20159C4.07935 8.53825 4.53935 9.20659 4.55019 9.96325V10.0366C4.53935 10.7933 4.07935 11.4616 3.16019 12.7983C2.00769 14.4733 1.43185 15.3116 1.75519 15.9691L1.78602 16.0274C2.14435 16.6666 3.16102 16.6666 5.19436 16.6666H10.8327C12.4685 16.6666 13.286 16.6666 13.9902 16.3149C14.6935 15.9624 15.1844 15.3083 16.166 13.9999C17.6102 12.0741 18.3327 11.1108 18.3327 9.99992C18.3327 8.88909 17.6102 7.92575 16.166 5.99992C15.1844 4.69159 14.6935 4.03742 13.9902 3.68492C13.286 3.33325 12.4685 3.33325 10.8327 3.33325Z" fill="#FFE600"/>
</svg>
