<svg width="24" height="24" viewBox="0 0 24 24" fill="none" xmlns="http://www.w3.org/2000/svg">
<path d="M17.8333 6.8L17.3511 14.82C17.2282 16.8688 17.1668 17.8936 16.6667 18.6304C16.4198 18.9945 16.1019 19.3018 15.7333 19.5328C14.989 20 13.9911 20 11.9953 20C9.99644 20 8.997 20 8.25111 19.532C7.88236 19.3006 7.5645 18.9927 7.31778 18.628C6.81844 17.8904 6.75778 16.864 6.638 14.812L6.16667 6.8M5 6.8H19M15.1547 6.8L14.6234 5.6736C14.2711 4.9248 14.0946 4.5512 13.7904 4.3176C13.7229 4.26585 13.6514 4.21983 13.5766 4.18C13.2398 4 12.8353 4 12.0272 4C11.1981 4 10.7836 4 10.4406 4.1872C10.3647 4.22897 10.2924 4.27713 10.2243 4.3312C9.91711 4.5736 9.74522 4.9616 9.40144 5.7368L8.93011 6.8" stroke="#DA5747" stroke-width="1.5" stroke-linecap="round"/>
</svg>
