<svg width="32" height="32" viewBox="0 0 32 32" fill="none" xmlns="http://www.w3.org/2000/svg">
<path d="M22 9.33301C23.244 9.89834 24 10.6423 24 11.4557C24 13.229 20.4187 14.6663 16 14.6663C11.5813 14.6663 8 13.229 8 11.4557C8 10.6423 8.75467 9.89834 10 9.33301M8 17.333C8 18.8063 11.5813 19.9997 16 19.9997C20.4187 19.9997 24 18.8063 24 17.333" stroke="#252525" stroke-width="1.5" stroke-linecap="round" stroke-linejoin="round"/>
<path d="M24 12V22.6667C24 24.14 20.4187 25.3333 16 25.3333C11.5813 25.3333 8 24.14 8 22.6667V12" stroke="#252525" stroke-width="1.5" stroke-linecap="round" stroke-linejoin="round"/>
<path d="M27.3307 21.3332C28.5974 22.1345 29.3307 23.0798 29.3307 24.0932C29.3307 26.9865 23.3614 29.3332 15.9974 29.3332C8.6334 29.3332 2.66406 26.9865 2.66406 24.0932C2.66406 23.0798 3.3974 22.1345 4.66406 21.3332M15.9974 5.33317C16.7046 5.33317 17.3829 5.61412 17.883 6.11422C18.3831 6.61432 18.6641 7.29259 18.6641 7.99984C18.6641 8.70708 18.3831 9.38536 17.883 9.88546C17.3829 10.3856 16.7046 10.6665 15.9974 10.6665C15.2902 10.6665 14.6119 10.3856 14.1118 9.88546C13.6117 9.38536 13.3307 8.70708 13.3307 7.99984C13.3307 7.29259 13.6117 6.61432 14.1118 6.11422C14.6119 5.61412 15.2902 5.33317 15.9974 5.33317ZM15.9974 5.33317C15.9974 4.6665 16.5307 3.19984 18.6641 2.6665" stroke="#252525" stroke-width="1.5" stroke-linecap="round" stroke-linejoin="round"/>
</svg>
