<svg width="12" height="12" viewBox="0 0 12 12" fill="none" xmlns="http://www.w3.org/2000/svg">
<path d="M9.005 3.745L9.75 3M9.005 3.745C8.20797 2.94797 7.12717 2.5 6 2.5C4.87283 2.5 3.79183 2.94777 2.9948 3.7448C2.19777 4.54183 1.75 5.62283 1.75 6.75C1.75 7.87717 2.19777 8.95817 2.9948 9.7552C3.79183 10.5522 4.87283 11 6 11C7.12717 11 8.20817 10.5522 9.0052 9.7552C9.80223 8.95817 10.25 7.87717 10.25 6.75C10.25 5.62283 9.80203 4.54203 9.005 3.745ZM7.25 1H4.75M6 6.75L7.75 5" stroke="#DA5747" stroke-linecap="round" stroke-linejoin="round"/>
</svg>
