<svg width="20" height="20" viewBox="0 0 20 20" fill="none" xmlns="http://www.w3.org/2000/svg">
<path fill-rule="evenodd" clip-rule="evenodd" d="M9.99707 1.66602C14.5994 1.66602 18.3311 5.39665 18.3311 9.99902C18.331 14.6013 14.5994 18.332 9.99707 18.332C5.3949 18.3319 1.66415 14.6012 1.66406 9.99902C1.66406 5.39676 5.39485 1.66619 9.99707 1.66602ZM10 9.08203C9.72386 9.08203 9.5 9.30589 9.5 9.58203V13.332C9.50026 13.6079 9.72402 13.832 10 13.832C10.276 13.832 10.4997 13.6079 10.5 13.332V9.58203C10.5 9.30589 10.2761 9.08203 10 9.08203ZM10 6.16895C9.72386 6.16895 9.5 6.3928 9.5 6.66895V6.67578C9.50026 6.9517 9.72402 7.17578 10 7.17578C10.276 7.17578 10.4997 6.9517 10.5 6.67578V6.66895C10.5 6.3928 10.2761 6.16895 10 6.16895Z" fill="#E1E6ED"/>
<path d="M10 13.3315V9.58154" stroke="#252525" stroke-width="2" stroke-linecap="round" stroke-linejoin="round"/>
<path d="M10 6.6756V6.66846" stroke="#252525" stroke-width="2" stroke-linecap="round" stroke-linejoin="round"/>
</svg>
