<svg width="32" height="32" viewBox="0 0 32 32" fill="none" xmlns="http://www.w3.org/2000/svg">
<path d="M22.6641 17.6403C22.6641 17.6403 21.4507 17.027 20.2401 17.027C18.4214 17.027 15.9974 19.487 15.9974 23.1803C15.9974 26.8723 19.3174 29.3337 22.6641 29.3337C26.0107 29.3337 29.3307 26.8723 29.3307 23.1803C29.3307 19.4883 26.9067 17.0257 25.0881 17.0257C23.8761 17.0257 22.6641 17.6417 22.6641 17.6417C22.6641 15.7963 23.8774 13.335 26.3001 13.335M14.2041 6.66699C15.3987 6.66699 16.3681 5.77099 16.3681 4.66699C16.3681 3.56299 15.3974 2.66699 14.2041 2.66699H6.99073C5.79606 2.66699 4.82806 3.56299 4.82806 4.66699C4.82806 5.77099 5.79606 6.66699 6.99206 6.66699M14.8894 6.56433C16.1641 8.91899 17.2094 11.0443 17.8494 13.3337C17.9018 13.5203 17.9512 13.7083 17.9974 13.8977M13.9014 29.3337H8.43473C3.66006 29.3337 2.66406 28.4137 2.66406 24.0003V18.3697C2.66406 13.8363 4.12806 10.515 6.27073 6.55366" stroke="#252525" stroke-width="2" stroke-linecap="round" stroke-linejoin="round"/>
</svg>
