<svg width="24" height="24" viewBox="0 0 24 24" fill="none" xmlns="http://www.w3.org/2000/svg">
<path d="M12 19H16.6667M13.9445 6.94441L17.0556 10.0555M9.02268 18.0884L18.0885 9.02264C18.5132 8.59797 18.7247 8.38641 18.8383 8.15775C18.9446 7.94305 19 7.70668 19 7.46708C19 7.22747 18.9446 6.9911 18.8383 6.77641C18.7247 6.54696 18.5132 6.33541 18.0885 5.91152C17.6646 5.48685 17.453 5.27529 17.2236 5.16174C17.0089 5.05535 16.7725 5 16.5329 5C16.2933 5 16.0569 5.05535 15.8423 5.16174C15.6136 5.27529 15.402 5.48685 14.9774 5.91152L5.91156 14.9773C5.46122 15.4269 5.23645 15.6517 5.11822 15.9379C5 16.2233 5 16.5414 5 17.1777V19H6.82234C7.45856 19 7.7759 19 8.06212 18.8818C8.34757 18.7636 8.57234 18.538 9.02268 18.0884Z" stroke="#308BF9" stroke-width="1.5" stroke-linecap="round" stroke-linejoin="round"/>
</svg>
