<svg width="15" height="15" viewBox="0 0 15 15" fill="none" xmlns="http://www.w3.org/2000/svg">
<path d="M7.49997 7.5V10.8M7.49997 7.5C9.62625 7.5 11.3499 5.78565 11.3499 3.6709C11.3499 3.6159 11.3488 3.5609 11.3466 3.5059C11.323 2.9559 11.3114 2.6809 10.9385 2.34045C10.5656 2 10.1537 2 9.32815 2H5.67179C4.8468 2 4.43376 2 4.06141 2.341C3.68906 2.6809 3.67696 2.9559 3.65331 3.50535C3.65111 3.56035 3.65001 3.61553 3.65001 3.6709C3.65001 5.78565 5.37369 7.5 7.49997 7.5ZM7.49997 10.8C6.57928 10.8 5.77849 11.3566 5.36489 12.1777C5.1669 12.5699 5.45069 13 5.82689 13H9.1725C9.54925 13 9.8325 12.5699 9.63505 12.1777C9.22145 11.3566 8.42066 10.8 7.49997 10.8ZM3.65001 3.65H3.09177C2.54893 3.65 2.27778 3.65 2.11003 3.8535C1.94228 4.05755 1.99178 4.2858 2.09023 4.7423C2.27723 5.6135 2.68477 6.37965 3.23697 6.95M11.3499 3.65H11.9082C12.451 3.65 12.7222 3.65 12.8899 3.8535C13.0577 4.05755 13.0082 4.2858 12.9103 4.7423C12.7222 5.6135 12.3152 6.37965 11.7624 6.95" stroke="#308BF9" stroke-linecap="round" stroke-linejoin="round"/>
</svg>
