<svg width="15" height="15" viewBox="0 0 15 15" fill="none" xmlns="http://www.w3.org/2000/svg">
<path d="M7.5 2L7.9235 3.87943C8.09985 4.66018 8.49385 5.37497 9.05984 5.94095C9.62582 6.50693 10.3406 6.90093 11.1214 7.07729L13 7.5L11.1206 7.9235C10.3398 8.09985 9.62503 8.49385 9.05905 9.05983C8.49307 9.62582 8.09907 10.3406 7.92271 11.1214L7.5 13L7.0765 11.1206C6.90015 10.3398 6.50615 9.62503 5.94017 9.05905C5.37418 8.49307 4.65939 8.09907 3.87864 7.92271L2 7.5L3.87943 7.0765C4.66018 6.90015 5.37497 6.50615 5.94095 5.94017C6.50693 5.37418 6.90093 4.65939 7.07729 3.87864L7.5 2Z" stroke="#308BF9" stroke-linecap="round" stroke-linejoin="round"/>
</svg>
