<svg width="20" height="20" viewBox="0 0 20 20" fill="none" xmlns="http://www.w3.org/2000/svg">
<path d="M11.8075 17.4084C15.2941 17.1775 18.0708 14.3609 18.2991 10.825C18.3433 10.1334 18.3433 9.41669 18.2991 8.72503C18.0708 5.19003 15.2941 2.37503 11.8075 2.14253C10.6032 2.06317 9.39504 2.06317 8.19079 2.14253C4.70412 2.37419 1.92746 5.19003 1.69912 8.72586C1.65498 9.42517 1.65498 10.1266 1.69912 10.8259C1.78246 12.1134 2.35162 13.3059 3.02246 14.3125C3.41162 15.0167 3.15496 15.8959 2.74912 16.665C2.45746 17.2192 2.31079 17.4959 2.42829 17.6959C2.54496 17.8959 2.80746 17.9025 3.33162 17.915C4.36912 17.94 5.06829 17.6467 5.62329 17.2375C5.93746 17.005 6.09496 16.8892 6.20329 16.8759C6.31162 16.8625 6.52579 16.9509 6.95246 17.1259C7.33579 17.2842 7.78162 17.3817 8.18996 17.4092C9.37746 17.4875 10.6183 17.4875 11.8083 17.4092L11.8075 17.4084Z" fill="#3FAF58"/>
<path d="M9.99518 10H10.0035M13.3252 10H13.3327M6.66602 10H6.67352" stroke="white" stroke-width="2" stroke-linecap="round" stroke-linejoin="round"/>
</svg>
