<svg width="20" height="20" viewBox="0 0 20 20" fill="none" xmlns="http://www.w3.org/2000/svg">
<path d="M2.5 9.99171V12.0834C2.5 14.8334 2.5 16.2084 3.35417 17.0625C4.20833 17.9167 5.58333 17.9167 8.33333 17.9167H11.6667C14.4167 17.9167 15.7917 17.9167 16.6458 17.0625C17.5 16.2084 17.5 14.8334 17.5 12.0834V9.99171C17.5 8.59004 17.5 7.89004 17.2033 7.28337C16.9067 6.67671 16.3533 6.24671 15.2483 5.38671L13.5817 4.09087C11.8608 2.75254 11 2.08337 10 2.08337C9 2.08337 8.13917 2.75254 6.41833 4.09087L4.75167 5.38671C3.64583 6.24671 3.09333 6.67671 2.79667 7.28337C2.5 7.89004 2.5 8.59004 2.5 9.99171Z" stroke="#308BF9" stroke-width="1.5" stroke-linecap="round" stroke-linejoin="round"/>
<path d="M11.6673 12.5C11.6673 12.058 11.4917 11.6341 11.1792 11.3215C10.8666 11.009 10.4427 10.8334 10.0007 10.8334C9.55862 10.8334 9.1347 11.009 8.82214 11.3215C8.50958 11.6341 8.33398 12.058 8.33398 12.5C8.33398 12.9421 8.50958 13.366 8.82214 13.6786C9.1347 13.9911 9.55862 14.1667 10.0007 14.1667C10.4427 14.1667 10.8666 13.9911 11.1792 13.6786C11.4917 13.366 11.6673 12.9421 11.6673 12.5Z" stroke="#308BF9" stroke-width="1.5" stroke-linejoin="round"/>
</svg>
