<svg width="15" height="15" viewBox="0 0 15 15" fill="none" xmlns="http://www.w3.org/2000/svg">
<path d="M10.3125 1.25V3.125M4.6875 1.25V3.125M7.5 1.25V3.125M5 9.375H7.5M5 6.875H10M8.125 2.1875H6.875C4.8125 2.1875 3.78125 2.1875 3.14063 2.82813C2.5 3.46875 2.5 4.5 2.5 6.5625V9.375C2.5 11.4375 2.5 12.4688 3.14063 13.1094C3.78125 13.75 4.8125 13.75 6.875 13.75H8.125C10.1875 13.75 11.2188 13.75 11.8594 13.1094C12.5 12.4688 12.5 11.4375 12.5 9.375V6.5625C12.5 4.5 12.5 3.46875 11.8594 2.82813C11.2188 2.1875 10.1875 2.1875 8.125 2.1875Z" stroke="#308BF9" stroke-linecap="round" stroke-linejoin="round"/>
</svg>
