<svg width="18" height="18" viewBox="0 0 18 18" fill="none" xmlns="http://www.w3.org/2000/svg">
<path d="M3.74815 7.42758C3.74815 7.42758 6.72265 7.69458 7.20715 7.21008C7.69165 6.72558 7.42465 3.75108 7.42465 3.75108M2.2504 2.24958L6.86365 6.85608" stroke="#308BF9" stroke-width="1.5" stroke-linecap="round" stroke-linejoin="round"/>
<path d="M11.0734 3.49815C11.0734 3.49815 10.8064 6.47265 11.2909 6.95715C11.7754 7.44165 14.7499 7.17465 14.7499 7.17465M16.2514 2.0004L11.6449 6.61365" stroke="#308BF9" stroke-width="1.5" stroke-linecap="round" stroke-linejoin="round"/>
<path d="M14.7499 11.0734C14.7499 11.0734 11.7754 10.8064 11.2909 11.2909C10.8064 11.7754 11.0734 14.7499 11.0734 14.7499M16.2476 16.2514L11.6344 11.6449" stroke="#308BF9" stroke-width="1.5" stroke-linecap="round" stroke-linejoin="round"/>
<path d="M7.17856 14.7499C7.17856 14.7499 7.44556 11.7754 6.96106 11.2909C6.47656 10.8064 3.50206 11.0734 3.50206 11.0734M2.00056 16.2476L6.60706 11.6344" stroke="#308BF9" stroke-width="1.5" stroke-linecap="round" stroke-linejoin="round"/>
</svg>
