<svg width="20" height="20" viewBox="0 0 20 20" fill="none" xmlns="http://www.w3.org/2000/svg">
<path d="M4.9013 15.5858L2.91797 17.5025M15.118 15.5567L17.0846 17.4983M4.16797 2.5L1.66797 5M18.3346 5L15.8346 2.5M17.0846 10.4167C17.0846 12.2953 16.3384 14.097 15.01 15.4253C13.6816 16.7537 11.8799 17.5 10.0013 17.5C8.12269 17.5 6.32101 16.7537 4.99263 15.4253C3.66425 14.097 2.91797 12.2953 2.91797 10.4167C2.91797 8.53805 3.66425 6.73638 4.99263 5.40799C6.32101 4.07961 8.12269 3.33333 10.0013 3.33333C11.8799 3.33333 13.6816 4.07961 15.01 5.40799C16.3384 6.73638 17.0846 8.53805 17.0846 10.4167Z" stroke="#308BF9" stroke-width="1.5" stroke-linecap="round" stroke-linejoin="round"/>
<path d="M10 6.66699V10.417L11.6667 12.0837" stroke="#308BF9" stroke-width="1.5" stroke-linecap="round" stroke-linejoin="round"/>
</svg>
