<svg width="24" height="24" viewBox="0 0 24 24" fill="none" xmlns="http://www.w3.org/2000/svg">
<path d="M16.425 4.60511L17.415 3.61511C17.8088 3.22126 18.343 3 18.9 3C19.457 3 19.9912 3.22126 20.385 3.61511C20.7788 4.00895 21.0001 4.54312 21.0001 5.10011C21.0001 5.65709 20.7788 6.19126 20.385 6.58511L19.395 7.57511M16.425 4.60511L9.765 11.2651C9.25767 11.7728 8.89785 12.4088 8.724 13.1051L8 16.0001L10.896 15.2761C11.5924 15.102 12.2285 14.7418 12.736 14.2341L19.395 7.57511M16.425 4.60511L19.395 7.57511" stroke="#252525" stroke-width="1.5" stroke-linejoin="round"/>
<path d="M19 13.5C19 16.788 19 18.431 18.092 19.538C17.9259 19.7404 17.7404 19.9259 17.538 20.092C16.43 21 14.788 21 11.5 21H11C7.229 21 5.343 21 4.172 19.828C3.001 18.656 3 16.771 3 13V12.5C3 9.213 3 7.569 3.908 6.462C4.07467 6.25933 4.25933 6.07467 4.462 5.908C5.57 5 7.212 5 10.5 5" stroke="#252525" stroke-width="1.5" stroke-linecap="round" stroke-linejoin="round"/>
</svg>
