<svg width="32" height="32" viewBox="0 0 32 32" fill="none" xmlns="http://www.w3.org/2000/svg">
<path d="M28.0026 22.6663C26.2345 22.6663 24.5388 21.964 23.2886 20.7137C22.0383 19.4635 21.3359 17.7678 21.3359 15.9997C21.3359 14.2316 22.0383 12.5359 23.2886 11.2856C24.5388 10.0354 26.2345 9.33301 28.0026 9.33301" stroke="#252525" stroke-width="2" stroke-linecap="round" stroke-linejoin="round"/>
<path d="M28 28C26.4241 28 24.8637 27.6896 23.4078 27.0866C21.9519 26.4835 20.629 25.5996 19.5147 24.4853C18.4004 23.371 17.5165 22.0481 16.9134 20.5922C16.3104 19.1363 16 17.5759 16 16C16 14.4241 16.3104 12.8637 16.9134 11.4078C17.5165 9.95189 18.4004 8.62902 19.5147 7.51472C20.629 6.40042 21.9519 5.5165 23.4078 4.91345C24.8637 4.31039 26.4241 4 28 4M8 4V10.6667M8 28V14.6667M4.66667 10.6667H11.3333M12 4V9.80267C12 16.288 4 16.288 4 9.80267V4" stroke="#252525" stroke-width="2" stroke-linecap="round" stroke-linejoin="round"/>
</svg>
