<svg width="14" height="14" viewBox="0 0 14 14" fill="none" xmlns="http://www.w3.org/2000/svg">
<path d="M6.99707 1.16602C10.2186 1.16602 12.8309 3.77751 12.8311 6.99902C12.8311 10.2207 10.2187 12.833 6.99707 12.833C3.77556 12.8328 1.16406 10.2206 1.16406 6.99902C1.16424 3.77762 3.77567 1.16619 6.99707 1.16602ZM7 6.20703C6.72386 6.20703 6.5 6.43089 6.5 6.70703V9.33203C6.5 9.60817 6.72386 9.83203 7 9.83203C7.27614 9.83203 7.5 9.60817 7.5 9.33203V6.70703C7.5 6.43089 7.27614 6.20703 7 6.20703ZM7 4.16797C6.72386 4.16797 6.5 4.39183 6.5 4.66797V4.67285C6.5 4.94899 6.72386 5.17285 7 5.17285C7.27614 5.17285 7.5 4.94899 7.5 4.67285V4.66797C7.5 4.39183 7.27614 4.16797 7 4.16797Z" fill="#535359"/>
</svg>
