<svg width="20" height="20" viewBox="0 0 20 20" fill="none" xmlns="http://www.w3.org/2000/svg">
<path d="M12.5007 12.5002L13.7507 13.7502M14.1115 15.8543C13.991 15.7412 13.8945 15.6051 13.8277 15.454C13.7609 15.3028 13.7251 15.1398 13.7225 14.9746C13.7199 14.8094 13.7506 14.6454 13.8126 14.4922C13.8746 14.3391 13.9668 14.2 14.0836 14.0831C14.2005 13.9663 14.3396 13.8741 14.4927 13.8121C14.6459 13.7501 14.8099 13.7194 14.9751 13.722C15.1403 13.7246 15.3033 13.7604 15.4544 13.8272C15.6056 13.894 15.7417 13.9905 15.8548 14.111L17.5565 15.8127C17.6769 15.9258 17.7734 16.0619 17.8403 16.213C17.9071 16.3642 17.9428 16.5272 17.9454 16.6924C17.948 16.8576 17.9174 17.0216 17.8554 17.1748C17.7934 17.3279 17.7012 17.467 17.5844 17.5839C17.4675 17.7007 17.3284 17.7929 17.1753 17.8549C17.0221 17.9169 16.8581 17.9475 16.6929 17.9449C16.5276 17.9423 16.3646 17.9066 16.2135 17.8398C16.0624 17.7729 15.9263 17.6764 15.8132 17.556L14.1115 15.8543ZM13.7507 7.91683C13.7507 6.36973 13.1361 4.886 12.0421 3.79204C10.9481 2.69808 9.46441 2.0835 7.91732 2.0835C6.37022 2.0835 4.88649 2.69808 3.79253 3.79204C2.69857 4.886 2.08398 6.36973 2.08398 7.91683C2.08398 9.46393 2.69857 10.9477 3.79253 12.0416C4.88649 13.1356 6.37022 13.7502 7.91732 13.7502C9.46441 13.7502 10.9481 13.1356 12.0421 12.0416C13.1361 10.9477 13.7507 9.46393 13.7507 7.91683Z" stroke="#A1A1A1" stroke-width="1.5" stroke-linecap="round" stroke-linejoin="round"/>
</svg>
