<svg width="20" height="20" viewBox="0 0 20 20" fill="none" xmlns="http://www.w3.org/2000/svg">
<path d="M14.5827 17.5V11.6667M11.666 14.5833H17.4993M12.4993 6.66667C12.4993 5.5616 12.0604 4.50179 11.279 3.72039C10.4976 2.93899 9.43775 2.5 8.33268 2.5C7.22761 2.5 6.16781 2.93899 5.3864 3.72039C4.605 4.50179 4.16602 5.5616 4.16602 6.66667C4.16602 7.77174 4.605 8.83154 5.3864 9.61294C6.16781 10.3943 7.22761 10.8333 8.33268 10.8333C9.43775 10.8333 10.4976 10.3943 11.279 9.61294C12.0604 8.83154 12.4993 7.77174 12.4993 6.66667Z" stroke="white" stroke-width="1.5" stroke-linecap="round" stroke-linejoin="round"/>
<path d="M2.5 16.6667C2.49993 15.6008 2.79191 14.5553 3.34423 13.6437C3.89654 12.732 4.68807 11.9892 5.63286 11.4957C6.57765 11.0023 7.63958 10.7771 8.70332 10.8448C9.76706 10.9124 10.7919 11.2701 11.6667 11.8792" stroke="white" stroke-width="1.5" stroke-linecap="round" stroke-linejoin="round"/>
</svg>
