<svg width="20" height="20" viewBox="0 0 20 20" fill="none" xmlns="http://www.w3.org/2000/svg">
<path d="M10.8307 3.33398H5.19324C3.1599 3.33398 2.14323 3.33398 1.7849 3.97232L1.75324 4.03232C1.4299 4.68898 2.00573 5.52648 3.15823 7.20232C4.0774 8.53898 4.5374 9.20732 4.54823 9.96398V10.0373C4.5374 10.794 4.0774 11.4623 3.15823 12.799C2.00573 14.474 1.4299 15.3123 1.75324 15.9698L1.78407 16.0282C2.1424 16.6673 3.15907 16.6673 5.1924 16.6673H10.8307C12.4666 16.6673 13.2841 16.6673 13.9882 16.3156C14.6916 15.9632 15.1824 15.309 16.1641 14.0007C17.6082 12.0748 18.3307 11.1115 18.3307 10.0007C18.3307 8.88982 17.6082 7.92648 16.1641 6.00065C15.1824 4.69232 14.6916 4.03815 13.9882 3.68565C13.2841 3.33398 12.4666 3.33398 10.8307 3.33398Z" fill="#FFE600"/>
</svg>
