<svg width="24" height="24" viewBox="0 0 24 24" fill="none" xmlns="http://www.w3.org/2000/svg">
<path d="M21 17C19.6739 17 18.4021 16.4732 17.4645 15.5355C16.5268 14.5979 16 13.3261 16 12C16 10.6739 16.5268 9.40215 17.4645 8.46447C18.4021 7.52678 19.6739 7 21 7" stroke="#252525" stroke-width="1.5" stroke-linecap="round" stroke-linejoin="round"/>
<path d="M21 21C19.8181 21 18.6478 20.7672 17.5558 20.3149C16.4639 19.8626 15.4718 19.1997 14.636 18.364C13.8003 17.5282 13.1374 16.5361 12.6851 15.4442C12.2328 14.3522 12 13.1819 12 12C12 10.8181 12.2328 9.64778 12.6851 8.55585C13.1374 7.46392 13.8003 6.47177 14.636 5.63604C15.4718 4.80031 16.4639 4.13738 17.5558 3.68508C18.6478 3.23279 19.8181 3 21 3M6 3V8M6 21V11M3.5 8H8.5M9 3V7.352C9 12.216 3 12.216 3 7.352V3" stroke="#252525" stroke-width="1.5" stroke-linecap="round" stroke-linejoin="round"/>
</svg>
