<svg width="18" height="18" viewBox="0 0 18 18" fill="none" xmlns="http://www.w3.org/2000/svg">
<path d="M5.9999 2.3234C5.9999 2.3234 3.0254 2.0564 2.5409 2.5409C2.0564 3.0254 2.3234 5.9999 2.3234 5.9999M5.9999 15.6764C5.9999 15.6764 3.0254 15.9434 2.5409 15.4589C2.0564 14.9744 2.3234 11.9999 2.3234 11.9999M11.9999 2.3234C11.9999 2.3234 14.9744 2.0564 15.4589 2.5409C15.9434 3.0254 15.6764 5.9999 15.6764 5.9999M11.9999 15.6764C11.9999 15.6764 14.9744 15.9434 15.4589 15.4589C15.9434 14.9744 15.6764 11.9999 15.6764 11.9999M10.5074 7.4984L15.0471 2.96015M7.49765 10.5014L2.7299 15.2856M7.49765 7.5014L2.8844 2.8949M10.4849 10.5014L15.3959 15.3734" stroke="#308BF9" stroke-width="1.5" stroke-linecap="round" stroke-linejoin="round"/>
</svg>
