<svg width="20" height="20" viewBox="0 0 20 20" fill="none" xmlns="http://www.w3.org/2000/svg">
<path d="M11.8055 17.4074C15.2922 17.1765 18.0688 14.3599 18.2972 10.8241C18.3413 10.1324 18.3413 9.41572 18.2972 8.72405C18.0688 5.18905 15.2922 2.37405 11.8055 2.14155C10.6013 2.06219 9.39309 2.06219 8.18884 2.14155C4.70217 2.37322 1.9255 5.18905 1.69717 8.72488C1.65303 9.42419 1.65303 10.1256 1.69717 10.8249C1.7805 12.1124 2.34967 13.3049 3.0205 14.3116C3.40967 15.0157 3.153 15.8949 2.74717 16.6641C2.4555 17.2182 2.30884 17.4949 2.42634 17.6949C2.543 17.8949 2.8055 17.9015 3.32967 17.9141C4.36717 17.939 5.06634 17.6457 5.62134 17.2366C5.9355 17.0041 6.093 16.8882 6.20134 16.8749C6.30967 16.8616 6.52384 16.9499 6.9505 17.1249C7.33384 17.2832 7.77967 17.3807 8.188 17.4082C9.3755 17.4866 10.6163 17.4866 11.8063 17.4082L11.8055 17.4074Z" fill="#3FAF58"/>
<path d="M9.99323 10H10.0016M13.3232 10H13.3307M6.66406 10H6.67156" stroke="white" stroke-width="2" stroke-linecap="round" stroke-linejoin="round"/>
</svg>
