<svg width="24" height="24" viewBox="0 0 24 24" fill="none" xmlns="http://www.w3.org/2000/svg">
<path d="M13.3334 8.00048L16.0001 10.667M6.52134 14.8735L6 18L9.12669 17.4787C9.66989 17.3885 10.1713 17.1307 10.5607 16.7414L17.6134 9.6884C17.8609 9.44086 18 9.10515 18 8.75511C18 8.40506 17.8609 8.06935 17.6134 7.82182L16.1794 6.38722C16.0568 6.26447 15.9112 6.16708 15.751 6.10064C15.5907 6.0342 15.4189 6 15.2454 6C15.0719 6 14.9001 6.0342 14.7399 6.10064C14.5796 6.16708 14.434 6.26447 14.3114 6.38722L7.25868 13.4402C6.86948 13.8294 6.61169 14.3305 6.52134 14.8735Z" stroke="black" stroke-width="1.5" stroke-linecap="round" stroke-linejoin="round"/>
</svg>
