<svg width="20" height="20" viewBox="0 0 20 20" fill="none" xmlns="http://www.w3.org/2000/svg">
<path d="M13.3333 1.66699V5.00033M6.66667 1.66699V5.00033M2.5 8.33366H17.5M10.8333 3.33366H9.16667C6.02417 3.33366 4.4525 3.33366 3.47667 4.31033C2.50083 5.28699 2.5 6.85783 2.5 10.0003V11.667C2.5 14.8095 2.5 16.3812 3.47667 17.357C4.45333 18.3328 6.02417 18.3337 9.16667 18.3337H10.8333C13.9758 18.3337 15.5475 18.3337 16.5233 17.357C17.4992 16.3803 17.5 14.8095 17.5 11.667V10.0003C17.5 6.85783 17.5 5.28616 16.5233 4.31033C15.5467 3.33449 13.9758 3.33366 10.8333 3.33366Z" stroke="#308BF9" stroke-width="1.5" stroke-linecap="round" stroke-linejoin="round"/>
<path d="M9.99602 11.667H10.0027M9.99602 15.0003H10.0027M13.3252 11.667H13.3327M6.66602 11.667H6.67352M6.66602 15.0003H6.67352" stroke="#308BF9" stroke-width="2" stroke-linecap="round" stroke-linejoin="round"/>
</svg>
