<svg width="24" height="24" viewBox="0 0 24 24" fill="none" xmlns="http://www.w3.org/2000/svg">
<path d="M12 12V16.8M12 12C15.0927 12 17.5999 9.5064 17.5999 6.4304C17.5999 6.3504 17.5983 6.2704 17.5951 6.1904C17.5607 5.3904 17.5439 4.9904 17.0015 4.4952C16.4591 4 15.8599 4 14.6591 4H9.34079C8.1408 4 7.54001 4 6.99841 4.496C6.45682 4.9904 6.43922 5.3904 6.40482 6.1896C6.40162 6.2696 6.40002 6.34987 6.40002 6.4304C6.40002 9.5064 8.90719 12 12 12ZM12 16.8C10.6608 16.8 9.49599 17.6096 8.89439 18.804C8.6064 19.3744 9.01919 20 9.56638 20H14.4327C14.9807 20 15.3927 19.3744 15.1055 18.804C14.5039 17.6096 13.3391 16.8 12 16.8ZM6.40002 6.4H5.58803C4.79844 6.4 4.40404 6.4 4.16004 6.696C3.91605 6.9928 3.98805 7.3248 4.13125 7.9888C4.40324 9.256 4.99604 10.3704 5.79923 11.2M17.5999 6.4H18.4119C19.2015 6.4 19.5959 6.4 19.8399 6.696C20.0839 6.9928 20.0119 7.3248 19.8695 7.9888C19.5959 9.256 19.0039 10.3704 18.1999 11.2" stroke="#535359" stroke-width="1.5" stroke-linecap="round" stroke-linejoin="round"/>
</svg>
