<svg width="20" height="20" viewBox="0 0 20 20" fill="none" xmlns="http://www.w3.org/2000/svg">
<path d="M17.9527 9.204C18.206 9.559 18.3327 9.73734 18.3327 9.99984C18.3327 10.2632 18.206 10.4407 17.9527 10.7957C16.8143 12.3923 13.9068 15.8332 9.99935 15.8332C6.09102 15.8332 3.18435 12.3915 2.04602 10.7957C1.79268 10.4407 1.66602 10.2623 1.66602 9.99984C1.66602 9.7365 1.79268 9.559 2.04602 9.204C3.18435 7.60734 6.09185 4.1665 9.99935 4.1665C13.9077 4.1665 16.8143 7.60817 17.9527 9.204Z" stroke="#A1A1A1" stroke-width="1.5"/>
<path d="M12.5 10C12.5 9.33696 12.2366 8.70107 11.7678 8.23223C11.2989 7.76339 10.663 7.5 10 7.5C9.33696 7.5 8.70107 7.76339 8.23223 8.23223C7.76339 8.70107 7.5 9.33696 7.5 10C7.5 10.663 7.76339 11.2989 8.23223 11.7678C8.70107 12.2366 9.33696 12.5 10 12.5C10.663 12.5 11.2989 12.2366 11.7678 11.7678C12.2366 11.2989 12.5 10.663 12.5 10Z" stroke="#A1A1A1" stroke-width="1.5"/>
</svg>
