<svg width="94" height="94" viewBox="0 0 94 94" fill="none" xmlns="http://www.w3.org/2000/svg">
<path d="M76.375 21.5423L73.9467 60.8069C73.3278 70.8375 73.0184 75.8547 70.5 79.462C69.2567 81.2447 67.6562 82.7493 65.8 83.88C62.0517 86.1673 57.0267 86.1673 46.9765 86.1673C36.9107 86.1673 31.8777 86.1673 28.1217 83.8761C26.2647 82.7431 24.6641 81.2358 23.4217 79.4502C20.9072 75.8391 20.6017 70.814 19.9985 60.7677L17.625 21.5423M11.75 21.5423H82.25M62.886 21.5423L60.2109 16.0277C58.4367 12.3617 57.5476 10.5326 56.0162 9.3889C55.676 9.13555 55.3158 8.91026 54.9391 8.71523C53.2432 7.83398 51.2065 7.83398 47.1371 7.83398C42.9619 7.83398 40.8743 7.83398 39.1471 8.75048C38.7653 8.95498 38.4011 9.19079 38.0583 9.45548C36.5112 10.6422 35.6456 12.5418 33.9144 16.3371L31.5409 21.5423M37.2083 64.6257V41.1257M56.7917 64.6257V41.1257" stroke="#DA5747" stroke-width="4" stroke-linecap="round"/>
</svg>
