<svg width="32" height="32" viewBox="0 0 32 32" fill="none" xmlns="http://www.w3.org/2000/svg">
<path d="M7.42079 13.3643C7.05013 10.431 7.98613 10.3283 8.45013 10.691C16.2688 15.3123 20.4661 15.0803 22.2555 15.6057C23.6861 16.027 23.3021 17.2643 22.8368 17.7457L15.5435 26.3857C14.3355 27.8177 12.7435 30.1137 11.1741 29.0923C10.5021 28.6537 10.1235 27.7163 9.99679 26.991C9.25946 23.667 7.79146 16.2977 7.42079 13.3643Z" stroke="#252525" stroke-width="1.5" stroke-linecap="round" stroke-linejoin="round"/>
<path d="M21.3607 15.4268L24.582 10.2534C24.9447 9.36543 24.1394 7.95077 21.3607 8.8001L17.978 14.0934M21.0554 8.95477V7.1001C21.0554 6.6201 20.962 6.12677 20.6607 5.75343C20.194 5.1721 19.4074 4.8201 17.678 6.3681M17.4514 13.7614V4.29477C17.0074 3.5641 15.8514 2.24143 14.786 2.79743C13.7207 3.35343 13.826 4.29477 13.826 4.72277V6.40277M13.826 6.40277V9.32277M13.826 6.40277C13.2714 5.80143 11.6634 4.72277 10.702 5.56277C9.88738 6.27343 10.2367 9.32277 10.2367 11.1001M9.95538 24.0401C10.8487 24.0383 11.7048 23.6818 12.3354 23.049C12.966 22.4162 13.3195 21.5588 13.318 20.6654C13.3189 20.223 13.2326 19.7847 13.0641 19.3755C12.8956 18.9664 12.6482 18.5945 12.3359 18.281C12.0237 17.9675 11.6527 17.7186 11.2443 17.5485C10.8358 17.3783 10.3978 17.2903 9.95538 17.2894C9.37671 17.2894 8.83404 17.4361 8.35938 17.6934" stroke="#252525" stroke-width="1.5" stroke-linecap="round" stroke-linejoin="round"/>
</svg>
