<svg width="32" height="32" viewBox="0 0 32 32" fill="none" xmlns="http://www.w3.org/2000/svg">
<path d="M7.33594 25.3333L8.0826 24.0267C8.66568 23.0059 9.50829 22.1575 10.525 21.5674C11.5417 20.9773 12.6964 20.6666 13.8719 20.6667H18.1333C19.3088 20.6666 20.4635 20.9773 21.4802 21.5674C22.4969 22.1575 23.3395 23.0059 23.9226 24.0267L24.6693 25.3333M19.6693 12.6667C19.6693 13.6391 19.283 14.5718 18.5953 15.2594C17.9077 15.947 16.9751 16.3333 16.0026 16.3333C15.0301 16.3333 14.0975 15.947 13.4099 15.2594C12.7222 14.5718 12.3359 13.6391 12.3359 12.6667C12.3359 11.6942 12.7222 10.7616 13.4099 10.0739C14.0975 9.38631 15.0301 9 16.0026 9C16.9751 9 17.9077 9.38631 18.5953 10.0739C19.283 10.7616 19.6693 11.6942 19.6693 12.6667Z" stroke="#A1A1A1" stroke-width="2" stroke-linecap="round" stroke-linejoin="round"/>
</svg>
