<svg width="15" height="15" viewBox="0 0 15 15" fill="none" xmlns="http://www.w3.org/2000/svg">
<path d="M11.0749 7.5C11.0749 6.51495 10.0299 5.8434 9.14985 6.2306M2.82461 7.5C2.82461 6.78885 3.35758 6.20255 4.04291 6.12445C3.59519 5.11245 4.54398 3.9767 5.59617 4.20935M5.59617 4.20935C5.85798 2.72985 8.04156 2.72985 8.30392 4.20935C9.37976 3.9712 10.29 5.12565 9.86048 6.11565M5.59617 4.20935C5.91787 4.28122 6.20305 4.46625 6.39975 4.73075M10.2499 5.85L13 2.55M9.69987 4.2L10.7999 2M3.05067 7.5H10.8494C11.7306 7.5 12.054 7.7035 11.834 8.5901C11.4456 10.1538 10.3472 10.542 9.33191 11.5623C9.0855 11.8098 9.46942 12.1767 9.46942 12.4495C9.46942 12.9632 8.98155 13 8.59213 13H5.30851C4.91909 13 4.43068 12.9632 4.43123 12.45C4.43123 12.1827 4.80359 11.7988 4.56873 11.5623C3.55339 10.542 2.455 10.1538 2.06669 8.5901C1.84668 7.70405 2.16954 7.5 3.05067 7.5Z" stroke="#308BF9" stroke-linecap="round" stroke-linejoin="round"/>
</svg>
