<svg width="32" height="32" viewBox="0 0 32 32" fill="none" xmlns="http://www.w3.org/2000/svg">
<path d="M24.3307 14H26.1841C28.6534 14 29.3867 14.3533 29.3267 16.112C29.2294 19.0227 27.9161 22.4053 22.6641 23.3333" stroke="#252525" stroke-width="2" stroke-linecap="round" stroke-linejoin="round"/>
<path d="M7.9259 27.4863C3.42723 24.0263 2.76456 19.1197 2.6659 13.9997C2.62456 11.7877 3.2659 11.333 6.2099 11.333H20.4526C23.3966 11.333 24.0392 11.7877 23.9966 13.9997C23.8979 19.1197 23.2366 24.0263 18.7366 27.4863C17.4566 28.4703 16.3766 28.6663 14.5566 28.6663H12.1059C10.2872 28.6663 9.20723 28.4717 7.9259 27.4863Z" stroke="#252525" stroke-width="2" stroke-linecap="round" stroke-linejoin="round"/>
<path d="M13.3281 11.333V17.9997M15.0735 3.33301C14.3441 3.78501 13.3281 5.33301 13.3281 7.33301M10.0481 5.33301C10.0481 5.33301 9.32812 5.99967 9.32812 7.33301M18.6628 5.33301C18.2988 5.55967 17.9948 6.66634 17.9948 7.33301M11.3335 21.729L11.7228 19.2597C11.8375 18.537 12.5201 17.9997 13.3268 17.9997C14.1321 17.9997 14.8161 18.537 14.9295 19.2597L15.3188 21.729C15.5295 23.0583 11.1495 22.897 11.3335 21.729Z" stroke="#252525" stroke-width="2" stroke-linecap="round" stroke-linejoin="round"/>
</svg>
