<svg width="15" height="15" viewBox="0 0 15 15" fill="none" xmlns="http://www.w3.org/2000/svg">
<g clip-path="url(#clip0_34369_1389)">
<path d="M10.6018 5.61375C10.5999 3.77 10.5724 2.815 10.0355 2.16125C9.93194 2.03481 9.81617 1.91884 9.68992 1.815C8.9993 1.25 7.9743 1.25 5.9243 1.25C3.8743 1.25 2.8493 1.25 2.1593 1.81562C2.03305 1.91946 1.91728 2.03544 1.81367 2.16188C1.24805 2.85 1.24805 3.875 1.24805 5.925C1.24805 7.975 1.24805 9 1.8143 9.68938C1.91846 9.81604 2.03367 9.93125 2.15992 10.035C2.81367 10.5725 3.7693 10.6 5.61305 10.6012" stroke="#A1A1A1" stroke-linecap="round" stroke-linejoin="round"/>
<path d="M8.76703 5.64064L10.6208 5.61377M8.75828 13.7513L10.612 13.7244M13.732 8.76377L13.7145 10.6138M5.63078 8.77252L5.61328 10.6225M7.17891 5.64064C6.65891 5.73377 5.82266 5.82939 5.63078 6.90564M12.1839 13.7244C12.7058 13.6388 13.5427 13.5556 13.7514 12.4831M12.1839 5.64064C12.7039 5.73377 13.5402 5.82939 13.732 6.90564M7.18703 13.7231C6.66641 13.6306 5.83078 13.535 5.63828 12.4588" stroke="#A1A1A1" stroke-linecap="round" stroke-linejoin="round"/>
</g>
<defs>
<clipPath id="clip0_34369_1389">
<rect width="15" height="15" fill="white"/>
</clipPath>
</defs>
</svg>
