<svg width="20" height="20" viewBox="0 0 20 20" fill="none" xmlns="http://www.w3.org/2000/svg">
<path d="M14.1654 7.08329C14.1654 5.97822 13.7264 4.91842 12.945 4.13701C12.1636 3.35561 11.1038 2.91663 9.9987 2.91663C8.89363 2.91663 7.83382 3.35561 7.05242 4.13701C6.27102 4.91842 5.83203 5.97822 5.83203 7.08329C5.83203 8.18836 6.27102 9.24817 7.05242 10.0296C7.83382 10.811 8.89363 11.25 9.9987 11.25C11.1038 11.25 12.1636 10.811 12.945 10.0296C13.7264 9.24817 14.1654 8.18836 14.1654 7.08329Z" stroke="#252525" stroke-width="1.5" stroke-linecap="round" stroke-linejoin="round"/>
<path d="M15.8327 17.0833C15.8327 16.3173 15.6818 15.5587 15.3886 14.851C15.0955 14.1433 14.6658 13.5002 14.1241 12.9585C13.5825 12.4169 12.9394 11.9872 12.2317 11.694C11.5239 11.4009 10.7654 11.25 9.99935 11.25C9.2333 11.25 8.47476 11.4009 7.76703 11.694C7.0593 11.9872 6.41623 12.4169 5.87456 12.9585C5.33288 13.5002 4.9032 14.1433 4.61005 14.851C4.3169 15.5587 4.16602 16.3173 4.16602 17.0833" stroke="#252525" stroke-width="1.5" stroke-linecap="round" stroke-linejoin="round"/>
</svg>
