<svg width="12" height="12" viewBox="0 0 12 12" fill="none" xmlns="http://www.w3.org/2000/svg">
<g clip-path="url(#clip0_34624_1296)">
<path d="M6 0.625C3.03147 0.625 0.625 3.03147 0.625 6C0.625 8.96855 3.03147 11.375 6 11.375C8.96855 11.375 11.375 8.96855 11.375 6C11.375 3.03147 8.96855 0.625 6 0.625Z" fill="#3FAF58"/>
<path fill-rule="evenodd" clip-rule="evenodd" d="M8.41213 4.59045C8.52929 4.71105 8.52929 4.90659 8.41213 5.02719L5.61212 7.90954C5.55588 7.96747 5.47956 8 5.4 8C5.32044 8 5.24412 7.96747 5.18787 7.90954L3.58787 6.26248C3.47071 6.14187 3.47071 5.94636 3.58787 5.82576C3.70502 5.70515 3.89498 5.70515 4.01213 5.82576L5.4 7.25442L7.98789 4.59045C8.10505 4.46985 8.29497 4.46985 8.41213 4.59045Z" fill="white"/>
</g>
<defs>
<clipPath id="clip0_34624_1296">
<rect width="12" height="12" fill="white"/>
</clipPath>
</defs>
</svg>
